<svg width="117" height="51" viewBox="0 0 117 51" fill="none" xmlns="http://www.w3.org/2000/svg">
<g clip-path="url(#clip0_1_424)">
<path d="M0.0576172 50.9999V43.7349H3.11079C3.57845 43.7349 3.99015 43.8128 4.34645 43.9682C4.70276 44.1236 4.98141 44.3456 5.18241 44.6325C5.38397 44.9199 5.48447 45.2643 5.48447 45.665V45.7788C5.48447 46.2563 5.3657 46.6337 5.12816 46.9103C4.89062 47.187 4.61026 47.3737 4.2865 47.471V47.6161C4.54516 47.623 4.75929 47.7043 4.92831 47.8603C5.09733 48.0157 5.18184 48.2496 5.18184 48.561V50.9999H4.2865V48.6646C4.2865 48.4568 4.22711 48.298 4.10834 48.187C3.98957 48.0766 3.81142 48.0208 3.57445 48.0208H0.963806V50.9994H0.0576172V50.9999ZM0.963806 47.2325H3.02457C3.52078 47.2325 3.90392 47.1164 4.17344 46.8847C4.44295 46.6531 4.57828 46.3292 4.57828 45.9143V45.8414C4.57828 45.4265 4.44524 45.1032 4.17915 44.871C3.91306 44.6393 3.5282 44.5232 3.02457 44.5232H0.963806V47.2319V47.2325Z" fill="black"/>
<path d="M12.26 50.9999V43.7349H16.9097V44.5238H13.1662V46.9525H16.6077V47.7413H13.1662V50.2116H16.964V51.0005H12.26V50.9999Z" fill="black"/>
<path d="M23.1355 50.9999L25.4658 43.7349H27.0629L29.3932 50.9999H28.4544L27.872 49.1626H24.6567L24.0742 50.9999H23.1355ZM24.8834 48.3743H27.6345L26.34 44.2642H26.1887L24.8834 48.3743Z" fill="black"/>
<path d="M35.9202 50.9999V43.7349H36.8264V50.211H40.6453V50.9999H35.9197H35.9202Z" fill="black"/>
<path d="M55.0924 50.9999V43.7349H59.7427V44.5238H55.9986V46.9525H59.4406V47.7413H55.9986V50.2116H59.7964V51.0005H55.0924V50.9999Z" fill="black"/>
<path d="M69.0747 50.9789C68.5283 50.9789 68.0395 50.889 67.6078 50.7091C67.1761 50.5298 66.8364 50.2589 66.588 49.8958C66.3396 49.5332 66.2157 49.0796 66.2157 48.5337V48.3243H67.111V48.5337C67.111 49.1126 67.2943 49.5434 67.6615 49.8263C68.0281 50.1092 68.4992 50.2504 69.0747 50.2504C69.6503 50.2504 70.114 50.1274 70.4234 49.881C70.7329 49.6351 70.8871 49.3254 70.8871 48.9532C70.8871 48.6937 70.8169 48.4876 70.677 48.3345C70.5365 48.1814 70.3407 48.0567 70.0888 47.96C69.837 47.8638 69.5424 47.779 69.2043 47.7056L68.6431 47.5758C68.2045 47.4693 67.8157 47.3396 67.4782 47.1865C67.1396 47.0339 66.8752 46.8324 66.6851 46.5826C66.4943 46.3332 66.399 46.0122 66.399 45.6195C66.399 45.2268 66.5052 44.8875 66.717 44.6018C66.9289 44.3161 67.2275 44.0964 67.6124 43.9432C67.9967 43.7907 68.4409 43.7139 68.9445 43.7139C69.4482 43.7139 69.9135 43.7953 70.3201 43.9586C70.7267 44.122 71.0464 44.361 71.2805 44.6769C71.5141 44.9928 71.6311 45.3901 71.6311 45.8694V46.2883H70.7358V45.8694C70.7358 45.5301 70.6587 45.2575 70.504 45.0509C70.3492 44.8448 70.1374 44.6917 69.8673 44.5921C69.5978 44.4925 69.29 44.4424 68.9445 44.4424C68.4483 44.4424 68.0492 44.5437 67.7471 44.7469C67.4451 44.9501 67.2938 45.2376 67.2938 45.6104C67.2938 45.8563 67.3583 46.0561 67.4879 46.2092C67.6175 46.3623 67.8008 46.4869 68.0384 46.5837C68.2759 46.6799 68.5597 46.7653 68.8903 46.8381L69.4516 46.9679C69.8901 47.0544 70.2841 47.1722 70.633 47.3219C70.9819 47.4716 71.2605 47.6748 71.469 47.9309C71.6774 48.1871 71.7819 48.5212 71.7819 48.9338C71.7819 49.3465 71.6705 49.7057 71.4473 50.0113C71.2246 50.3175 70.9094 50.5549 70.5034 50.7251C70.0968 50.8947 69.6206 50.9795 69.0736 50.9795L69.0747 50.9789Z" fill="black"/>
<path d="M80.1014 50.9999V44.5238H77.6741V43.7349H83.4355V44.5238H81.0082V50.9999H80.102H80.1014Z" fill="black"/>
<path d="M88.582 50.9999L90.9123 43.7349H92.5088L94.8391 50.9999H93.9004L93.318 49.1626H90.1032L89.5208 50.9999H88.582V50.9999ZM90.3299 48.3743H93.081L91.7865 44.2642H91.6352L90.3299 48.3743Z" fill="black"/>
<path d="M102.413 50.9999V44.5238H99.9856V43.7349H105.747V44.5238H103.32V50.9999H102.414H102.413Z" fill="black"/>
<path d="M112.296 50.9999V43.7349H116.946V44.5238H113.202V46.9525H116.644V47.7413H113.202V50.2116H117V51.0005H112.296V50.9999Z" fill="black"/>
<path d="M99.0116 4.72244C100.705 3.33078 102.921 2.62499 105.6 2.62499C108.114 2.62499 110.143 3.32623 111.633 4.70934C112.661 5.66444 113.513 7.02991 114.164 8.76706C114.21 8.88829 114.334 8.96912 114.474 8.96912H116.613C116.704 8.96912 116.793 8.93326 116.855 8.87122C116.918 8.80918 116.949 8.72494 116.94 8.64013C116.676 6.25525 116.498 4.25912 116.379 2.35748C116.371 2.2351 116.283 2.13094 116.155 2.09167C114.423 1.56404 112.634 1.07966 110.837 0.652204C109.023 0.219624 107.054 0.000488281 104.986 0.000488281C101.438 0.000488281 98.3178 0.746688 95.71 2.21917C93.1011 3.69108 91.0478 5.78567 89.606 8.4449C88.1716 11.0933 87.4447 14.2557 87.4447 17.8433C87.4447 21.4308 88.171 24.7048 89.6037 27.4841C91.0426 30.272 93.1028 32.4832 95.726 34.0559C98.3561 35.6297 101.487 36.4277 105.033 36.4277C106.335 36.4277 107.501 36.3429 108.497 36.175C109.476 36.0093 110.674 35.7595 112.057 35.4322C112.692 35.2984 113.257 35.1635 113.735 35.0303C114.171 34.908 114.632 34.8459 115.105 34.8459C115.258 34.8459 115.423 34.8539 115.595 34.8693C115.764 34.8835 115.903 34.9045 116.008 34.9324C116.105 34.9575 116.21 34.9404 116.289 34.8875C116.372 34.8334 116.422 34.7486 116.426 34.6558C116.476 33.4924 116.527 32.2965 116.578 31.0688L116.616 30.1576C116.646 29.3983 116.685 28.6065 116.737 27.7385C116.742 27.656 116.709 27.5746 116.647 27.5154C116.585 27.4562 116.499 27.4226 116.409 27.4226H114.254C114.111 27.4226 113.986 27.5052 113.942 27.6281C112.416 31.815 109.579 33.8504 105.27 33.8504C103.232 33.8504 101.478 33.4264 100.057 32.5897C98.6279 31.7478 97.4556 30.5856 96.5723 29.137C95.6786 27.6719 95.022 25.9974 94.6211 24.1589C94.218 22.3102 94.013 20.3517 94.013 18.3367C94.013 15.48 94.4218 12.8162 95.2281 10.4188C96.0264 8.04419 97.2991 6.12775 99.011 4.72244H99.0116Z" fill="black"/>
<path d="M48.6047 34.147C47.9155 34.0332 47.4125 33.8448 47.1104 33.5875C46.8158 33.3388 46.6319 32.9193 46.5639 32.3376C46.4926 31.7286 46.4566 30.8856 46.4566 29.8315V5.90187C46.4566 4.68894 46.5445 3.81979 46.7193 3.32062C46.8849 2.85047 47.3097 2.54368 48.0189 2.38203C48.7024 2.22665 49.7947 2.08435 51.2673 1.95628C51.4027 1.94433 51.5083 1.83562 51.5083 1.70527V0.252148C51.5083 0.112698 51.3907 0 51.2456 0H35.3871C35.242 0 35.1244 0.112698 35.1244 0.252148V1.70471C35.1244 1.83562 35.23 1.94433 35.3654 1.95572C36.8654 2.08435 37.9754 2.23575 38.6641 2.40651C39.3721 2.58409 39.7981 2.9478 39.9648 3.51926C40.1407 4.12431 40.2298 5.14997 40.2298 6.57009V30.4991C40.2298 31.7132 40.1418 32.5818 39.9671 33.0804C39.8027 33.55 39.3784 33.8476 38.6709 33.9934C37.9754 34.1351 36.8625 34.2848 35.3608 34.4396C35.2272 34.4533 35.1244 34.5614 35.1244 34.69V36.1494C35.1244 36.2889 35.242 36.4016 35.3871 36.4016H51.2456C51.3907 36.4016 51.5083 36.2889 51.5083 36.1494V34.698C51.5083 34.5671 51.4027 34.4578 51.2668 34.447C50.1305 34.3537 49.2346 34.2518 48.6047 34.1465V34.147Z" fill="black"/>
<path d="M84.6005 21.308C83.6172 19.992 82.2999 18.9573 80.6839 18.2304C79.241 17.5832 77.6416 17.1649 75.9206 16.9867C81.2321 15.3896 83.9244 12.4293 83.9244 8.17976C83.9244 5.54103 82.832 3.49652 80.6765 2.10543C78.5369 0.725731 75.2222 0.0256348 70.8238 0.0256348H55.3654C55.2204 0.0256348 55.1028 0.138333 55.1028 0.277214V1.73205C55.1028 1.86182 55.2073 1.97054 55.3426 1.98249C56.7593 2.10999 58.0001 2.25968 58.6653 2.4293C59.3562 2.60574 59.7731 2.97002 59.9404 3.54091C60.1162 4.14482 60.2053 5.16935 60.2053 6.58719V30.4827C60.2053 31.6609 60.1168 32.5209 59.9421 33.0366C59.7771 33.5215 59.3705 33.8277 58.699 33.9718C58.0429 34.1118 56.7901 34.2603 55.3392 34.4134C55.2061 34.4277 55.1034 34.5352 55.1034 34.6639V36.1255C55.1034 36.2644 55.2198 36.3771 55.3649 36.3771C57.8613 36.3845 69.78 36.4278 70.9317 36.4278C72.2256 36.4278 73.4658 36.3748 74.6164 36.2718C75.7647 36.1705 76.8622 35.9969 77.8803 35.755C80.1986 35.1693 82.1657 34.0406 83.7268 32.4002C85.292 30.7536 86.0856 28.6732 86.0856 26.2172C86.0856 24.2803 85.586 22.6279 84.601 21.308H84.6005ZM66.4327 2.65071C66.9923 2.58753 67.4994 2.53232 67.9505 2.48394C68.429 2.43328 68.9406 2.40767 69.4728 2.40767C74.6432 2.40767 77.1562 4.71571 77.1562 9.46441C77.1562 11.81 76.4379 13.5813 75.0207 14.7305C73.5977 15.8848 71.1498 16.4711 67.7455 16.4711H67.07C66.8781 16.4711 66.6634 16.4591 66.4321 16.4346V2.65071H66.4327ZM76.961 32.2056C75.4661 33.4942 73.3282 34.1482 70.6062 34.1482C69.3888 34.1482 67.9996 34.0008 66.4767 33.7094C66.447 33.3536 66.4321 32.9085 66.4321 32.3837V18.9396C66.9615 18.8804 67.4857 18.8417 67.9927 18.8269C68.5489 18.8098 69.0416 18.8013 69.4722 18.8013C72.8411 18.8013 75.3353 19.4041 76.8867 20.5954C78.4273 21.7787 79.2079 23.6877 79.2079 26.269C79.2079 28.8502 78.4519 30.9204 76.9604 32.2056H76.961Z" fill="black"/>
<path d="M16.4313 0L0 12.2295V14.2427L16.4313 26.4727L29.0945 17.0471L27.7875 16.0737L16.4313 24.5267L1.26193 13.2364L16.4313 1.94547L31.6007 13.2364L29.995 14.4311L31.1799 15.3128L31.3021 15.4038L32.8735 14.2341V12.238L16.4313 0Z" fill="#E30613"/>
<path d="M16.4313 5.00537L3.76751 14.4311L5.07454 15.4038L16.4313 6.95084L31.6007 18.2417L16.437 29.5281L1.30304 18.2639L2.80365 17.1341L1.50974 16.1597L0 17.2969V19.2401L16.4313 31.4781L16.437 31.4736L16.4422 31.4781L32.8735 19.2401V17.2434L16.4313 5.00537Z" fill="#E30613"/>
<path d="M30.0064 21.9967L31.6115 23.1914L16.4422 34.4823L1.27278 23.1914L2.87845 21.9967L1.57141 21.0239L0 22.1936V24.1897L16.4422 36.4277L32.8735 24.1983V22.1851L31.3135 21.0239L30.0064 21.9967Z" fill="#E30613"/>
</g>
<defs>
<clipPath id="clip0_1_424">
<rect width="117" height="51" fill="white"/>
</clipPath>
</defs>
</svg>
